# xmcd
#
# Track frame offsets:
# 150
# 16156
# 33757
# 49964
# 64344
# 79395
# 93111
# 108170
# 123175
# 140752
# 159831
# 181210
# 195114
# 216494
# 235260
# 253343
# 271143
# 285554
# 301573
# 318080
# 335812
#
# Disc length: 4689 seconds
#
#
# Revision: 0
# Processed by: cddbd v1.5.1PL0 Copyright (c) Steve Scherf et al.
# Submitted via: FreeRIP 2.941 
#
DISCID=1c124f15
DTITLE=Καλοκαιρινές Επιτυχίες 2005 - Καλοκαιρινές Επιτυχίες 2005
DYEAR=2005
DGENRE=
TTITLE0=Ούτε στον εχθρό μου - Γιάννης Τάσιος
TTITLE1=Μόνη μου για πάρτη μου - Καίτη Γαρπή
TTITLE2=Η ωραία - Θάνος Πετρέλης
TTITLE3=Μα δεν μπορώ να σε ξεχάσω - Μάρω Λύτρα
TTITLE4=Όνειρο ζω - Μιχάλης Χ΄'Γιάννης
TTITLE5=Στης Εκκλησιάς την πόρτα - Μ. Πυροβολάκης
TTITLE6=Ούτε ένα μήνυμα - Νίκος Παναγιωτίδης
TTITLE7=Μ'αγαπάει - 4 Play
TTITLE8=Παντού θα σε ψάχνω - Γιώργος Χρίστου
TTITLE9=Κι είχα τόσα να σου πω - Πάριος/Ρέμος
TTITLE10=Να μείνεις εδώ - Μιχάλης Χ΄'Γιάννης
TTITLE11=Αγανάκτησα - Αλέξης
TTITLE12=Είναι ωραία η ζωή - 4 Play
TTITLE13=Είσαι παντού - Πάνος Κιάμος
TTITLE14=Πως ξεχνιέται κάπια σαν εσένα - Θ. Πετρέλης
TTITLE15=Υπάρχει άλλη - Μάρω Λύτρα
TTITLE16=Spaciba Baby - Γαρπή/Δάντης
TTITLE17=Te Quero Mucho - Μιχάλης Ρακιντζής
TTITLE18=Σ'αγαπώ - 4 Play
TTITLE19=Να μ'αγαπάς - Σάκης Ρουβάς
TTITLE20=Σιοκολάτα - Σαρμπέλ
EXTD=
EXTT0=
EXTT1=
EXTT2=
EXTT3=
EXTT4=
EXTT5=
EXTT6=
EXTT7=
EXTT8=
EXTT9=
EXTT10=
EXTT11=
EXTT12=
EXTT13=
EXTT14=
EXTT15=
EXTT16=
EXTT17=
EXTT18=
EXTT19=
EXTT20=
PLAYORDER=
